<svg width="30" height="32" viewBox="0 0 30 32" fill="none" xmlns="http://www.w3.org/2000/svg">
<path d="M30 4.33011V23.0801C29.999 23.2581 29.96 23.4338 29.8856 23.5954C29.8113 23.7571 29.7032 23.901 29.5688 24.0176C27.1813 26.0848 24.8984 26.8301 22.7219 26.8301C19.7672 26.8301 17.0078 25.4645 14.4406 24.1973C10.2922 22.1426 6.68594 20.3629 2.5 23.6692V30.5801C2.5 30.9116 2.3683 31.2296 2.13388 31.464C1.89946 31.6984 1.58152 31.8301 1.25 31.8301C0.918479 31.8301 0.600537 31.6984 0.366117 31.464C0.131696 31.2296 0 30.9116 0 30.5801V4.33011C0.00119853 4.15203 0.040434 3.97627 0.115078 3.81458C0.189722 3.6529 0.298052 3.50903 0.432813 3.39261C6.05781 -1.47926 11.1062 1.01605 15.5562 3.21761C19.8438 5.33949 23.5609 7.17386 27.9312 3.39261C28.1119 3.23603 28.3336 3.13452 28.5702 3.10013C28.8068 3.06574 29.0482 3.09991 29.266 3.19858C29.4837 3.29726 29.6686 3.4563 29.7987 3.65685C29.9288 3.85741 29.9987 4.09106 30 4.33011Z" fill="#00AEEF"/>
</svg>
