<svg width="32" height="29" viewBox="0 0 32 29" fill="none" xmlns="http://www.w3.org/2000/svg">
<path d="M8.49039 23.5095C10.5518 25.571 13.2643 26.8538 16.1656 27.1394C19.0669 27.425 21.9774 26.6957 24.4013 25.0758C26.8251 23.4559 28.6122 21.0456 29.458 18.2557C30.3038 15.4658 30.1561 12.4689 29.0398 9.77571C27.9236 7.08255 25.908 4.85978 23.3366 3.48621C20.7651 2.11263 17.7969 1.67325 14.9378 2.24293C12.0787 2.81261 9.50561 4.3561 7.65701 6.61037C5.80842 8.86465 4.79872 11.6902 4.79999 14.6055V17.3999" stroke="#00AEEF" stroke-width="2.5" stroke-linecap="round" stroke-linejoin="round"/>
<path d="M2 14.5999L4.8 17.3999L7.6 14.5999M16 8.99991V15.9999H23" stroke="#00AEEF" stroke-width="2.5" stroke-linecap="round" stroke-linejoin="round"/>
</svg>
